<svg xmlns="http://www.w3.org/2000/svg" width="1920" height="2491" viewBox="0 0 1920 2491" fill="none"><path d="M-314.736 452.548C-345.978 421.306 -345.978 370.653 -314.736 339.411L-31.8932 56.5685C-0.651317 25.3266 50.0019 25.3266 81.2439 56.5685L731.782 707.107C763.024 738.349 763.024 789.002 731.782 820.244L81.2439 1470.78C50.0019 1502.02 -0.651317 1502.02 -31.8932 1470.78L-314.736 1187.94C-345.978 1156.7 -345.978 1106.04 -314.736 1074.8L-60.1775 820.244C-28.9356 789.002 -28.9356 738.349 -60.1775 707.107L-314.736 452.548Z" fill="url(#paint0_linear)" style="mix-blend-mode:multiply"></path><path d="M2230.09 2037.8C2261.33 2069.04 2261.33 2119.7 2230.09 2150.94L1947.24 2433.78C1916 2465.02 1865.35 2465.02 1834.11 2433.78L1183.57 1783.24C1152.33 1752 1152.33 1701.35 1183.57 1670.11L1834.11 1019.57C1865.35 988.327 1916 988.327 1947.24 1019.57L2230.09 1302.41C2261.33 1333.65 2261.33 1384.31 2230.09 1415.55L1975.53 1670.11C1944.29 1701.35 1944.29 1752 1975.53 1783.24L2230.09 2037.8Z" fill="url(#paint1_linear)" style="mix-blend-mode:multiply"></path><defs><linearGradient id="paint0_linear" x1="-357.162" y1="381.838" x2="406.513" y2="1145.51" gradientUnits="userSpaceOnUse"><stop stop-color="#1B5FC1" stop-opacity="0.08"></stop><stop offset="1" stop-color="#1B5FC1" stop-opacity="0.04"></stop></linearGradient><linearGradient id="paint1_linear" x1="2272.51" y1="2108.51" x2="1508.84" y2="1344.84" gradientUnits="userSpaceOnUse"><stop stop-color="#28BD86" stop-opacity="0.08"></stop><stop offset="1" stop-color="#28BD86" stop-opacity="0.04"></stop></linearGradient></defs></svg>