<?xml version="1.0" encoding="UTF-8" standalone="no"?>
<!DOCTYPE svg PUBLIC "-//W3C//DTD SVG 1.1//EN" "http://www.w3.org/Graphics/SVG/1.1/DTD/svg11.dtd">
<svg width="100%" height="100%" viewBox="0 0 1000 1000" version="1.1" xmlns="http://www.w3.org/2000/svg" xmlns:xlink="http://www.w3.org/1999/xlink" xml:space="preserve" xmlns:serif="http://www.serif.com/" style="fill-rule:evenodd;clip-rule:evenodd;stroke-linejoin:round;stroke-miterlimit:2;">
    <g id="blob" transform="matrix(-4.93528,-6.38091,6.38091,-4.93528,659.71,606.615)">
        <g opacity="0.1">
            <g transform="matrix(1,0,0,1,-100,-100)">
                <g transform="matrix(1,0,0,1,100,100)">
                    <path d="M49.1,-53.1C60.4,-37.8 64.2,-18.9 65,0.8C65.8,20.5 63.6,41 52.3,47.7C41,54.5 20.5,47.5 5.9,41.6C-8.7,35.7 -17.4,30.9 -25,24.2C-32.6,17.4 -39.1,8.7 -38.7,0.4C-38.3,-7.9 -30.9,-15.7 -23.3,-31.1C-15.7,-46.5 -7.9,-69.3 5.5,-74.8C18.9,-80.3 37.8,-68.5 49.1,-53.1Z" style="fill:rgb(104,120,214);fill-rule:nonzero;"/>
                </g>
            </g>
        </g>
    </g>
    <g id="vector" transform="matrix(1.76596,0,0,1.76596,500,500)">
        <g transform="matrix(1,0,0,1,-256,-256)">
            <g>
                <path d="M278.35,482.537C274.189,482.537 270.816,479.163 270.816,475.002L270.816,454.966C270.816,452.097 268.481,449.762 265.611,449.762L245.383,449.762C242.514,449.762 240.179,452.097 240.179,454.966L240.179,475.002C240.179,479.163 236.805,482.537 232.644,482.537C228.483,482.537 225.109,479.163 225.109,475.002L225.109,454.966C225.109,443.788 234.204,434.692 245.383,434.692L265.611,434.692C276.79,434.692 285.885,443.788 285.885,454.966L285.885,475.002C285.885,479.163 282.513,482.537 278.35,482.537Z" style="fill:rgb(104,120,214);fill-rule:nonzero;"/>
                <g>
                    <path d="M327.943,207.104C325.467,203.759 320.748,203.057 317.403,205.532C314.059,208.008 313.355,212.727 315.831,216.071L353.247,266.606C357.409,272.227 357.108,280.693 352.562,285.881L312.25,331.885L198.745,331.885L158.434,285.881C153.888,280.693 153.586,272.227 157.749,266.606L232.033,166.276L232.033,223.444C222.617,230.682 217.112,241.751 217.112,253.833C217.112,274.999 234.332,292.219 255.498,292.219C276.664,292.219 293.883,274.999 293.883,253.833C293.883,242.295 288.748,231.52 279.967,224.261L279.967,167.633L296.512,189.98C298.989,193.325 303.708,194.027 307.052,191.552C310.397,189.075 311.1,184.357 308.624,181.012L276.305,137.36C271.217,130.489 263.633,126.547 255.499,126.547C247.364,126.547 239.78,130.489 234.692,137.36L145.638,257.64C137.286,268.92 137.915,285.331 147.101,295.814L180.72,334.179C172.325,338.093 166.49,346.607 166.49,356.464L166.49,392.411C166.49,403.416 173.761,412.754 183.751,415.876L185.806,475.265C185.947,479.336 189.29,482.54 193.332,482.54C193.421,482.54 193.509,482.539 193.597,482.536C197.757,482.391 201.011,478.904 200.867,474.745L198.868,416.99L313.134,416.99L311.135,474.745C310.991,478.904 314.246,482.391 318.405,482.536C318.493,482.539 318.581,482.54 318.67,482.54C322.711,482.54 326.055,479.336 326.196,475.265L328.263,415.532C337.726,412.111 344.507,403.039 344.507,392.411L344.507,356.464C344.507,346.607 338.672,338.093 330.278,334.179L363.896,295.814C373.083,285.332 373.711,268.92 365.36,257.64L327.943,207.104ZM255.498,141.616C258.855,141.616 261.943,143.289 264.192,146.326L264.897,147.278L264.897,228.048C264.897,230.582 266.172,232.948 268.29,234.342C274.879,238.678 278.814,245.965 278.814,253.831C278.814,266.687 268.354,277.147 255.498,277.147C242.641,277.147 232.182,266.687 232.182,253.831C232.182,245.592 236.399,238.125 243.464,233.857C245.722,232.492 247.103,230.046 247.103,227.408L247.103,145.961C249.323,143.164 252.283,141.616 255.498,141.616ZM329.438,392.409C329.438,397.651 325.172,401.917 319.93,401.917L191.067,401.917C185.823,401.917 181.559,397.651 181.559,392.409L181.559,356.462C181.559,351.219 185.824,346.954 191.067,346.954L319.93,346.954C325.173,346.954 329.438,351.219 329.438,356.462L329.438,392.409Z" style="fill:rgb(104,120,214);fill-rule:nonzero;"/>
                    <path d="M105.551,209.416C106.541,185.543 113.18,162.17 124.932,141.458C126.985,137.839 125.716,133.24 122.097,131.187C118.477,129.132 113.879,130.402 111.825,134.022C98.801,156.975 91.478,182.891 90.469,209.342C77.466,212.648 67.82,224.452 67.82,238.47C67.82,255.041 81.301,268.522 97.872,268.522C114.442,268.522 127.924,255.041 127.924,238.47C127.924,224.553 118.414,212.818 105.551,209.416ZM97.872,253.452C89.61,253.452 82.889,246.731 82.889,238.47C82.889,230.209 89.61,223.488 97.872,223.488C106.133,223.488 112.854,230.209 112.854,238.47C112.854,246.731 106.133,253.452 97.872,253.452Z" style="fill:rgb(104,120,214);fill-rule:nonzero;"/>
                    <path d="M496.046,29.463L471.832,29.463C463.036,29.463 455.878,36.62 455.878,45.417L455.878,49.989L284.061,49.989L284.061,45.417C284.061,36.62 276.904,29.463 268.107,29.463L243.893,29.463C235.096,29.463 227.939,36.62 227.939,45.417L227.939,49.989L56.122,49.989L56.122,45.417C56.122,36.62 48.964,29.463 40.168,29.463L15.954,29.463C7.157,29.463 0,36.62 0,45.417L0,69.631C0,78.428 7.157,85.585 15.954,85.585L40.168,85.585C48.964,85.585 56.122,78.428 56.122,69.631L56.122,65.059L186.924,65.059C166.005,74.667 147.121,88.625 131.615,106.24C128.865,109.364 129.167,114.125 132.292,116.875C133.723,118.134 135.499,118.754 137.268,118.754C139.358,118.754 141.437,117.89 142.926,116.198C165.207,90.888 195.14,73.874 227.939,67.684L227.939,69.632C227.939,78.429 235.096,85.586 243.893,85.586L268.107,85.586C276.904,85.586 284.061,78.429 284.061,69.632L284.061,67.683C352.464,80.572 403.571,139.559 406.458,209.415C393.591,212.814 384.076,224.551 384.076,238.471C384.076,255.042 397.558,268.523 414.128,268.523C430.699,268.523 444.18,255.042 444.18,238.471C444.18,224.455 434.535,212.652 421.533,209.344C419.124,145.962 380.628,90.631 325.08,65.061L455.878,65.061L455.878,69.633C455.878,78.43 463.036,85.587 471.832,85.587L496.046,85.587C504.843,85.587 512,78.43 512,69.633L512,45.417C512,36.62 504.843,29.463 496.046,29.463ZM41.052,69.631C41.052,70.118 40.655,70.515 40.168,70.515L15.954,70.515C15.467,70.515 15.07,70.118 15.07,69.631L15.07,45.417C15.07,44.93 15.467,44.533 15.954,44.533L40.168,44.533C40.655,44.533 41.052,44.93 41.052,45.417L41.052,69.631ZM429.111,238.469C429.111,246.73 422.39,253.451 414.128,253.451C405.867,253.451 399.146,246.73 399.146,238.469C399.146,230.208 405.867,223.487 414.128,223.487C422.39,223.487 429.111,230.208 429.111,238.469ZM268.991,69.631C268.991,70.118 268.594,70.515 268.107,70.515L243.893,70.515C243.406,70.515 243.009,70.118 243.009,69.631L243.009,45.417C243.009,44.93 243.406,44.533 243.893,44.533L268.107,44.533C268.594,44.533 268.991,44.93 268.991,45.417L268.991,69.631ZM496.93,69.631C496.93,70.118 496.533,70.515 496.046,70.515L471.832,70.515C471.345,70.515 470.948,70.118 470.948,69.631L470.948,45.417C470.948,44.93 471.345,44.533 471.832,44.533L496.046,44.533C496.533,44.533 496.93,44.93 496.93,45.417L496.93,69.631Z" style="fill:rgb(104,120,214);fill-rule:nonzero;"/>
                </g>
            </g>
        </g>
    </g>
</svg>
