<svg xmlns="http://www.w3.org/2000/svg" viewBox="0 0 178 100" fill-rule="evenodd" clip-rule="evenodd" stroke-linejoin="round" stroke-miterlimit="2"><path d="M3.104 60.43c2.605-.052 5.156.75 7.262 2.283a6.828 6.828 0 008.085 0 12.751 12.751 0 0114.542 0 6.83 6.83 0 008.086 0 11.943 11.943 0 017.168-2.283h3.013v6.007h-3.013a6.317 6.317 0 00-4.043 1.329 12.751 12.751 0 01-14.542 0 6.28 6.28 0 00-4.043-1.329 6.347 6.347 0 00-4.042 1.329 12.712 12.712 0 01-14.524 0 6.315 6.315 0 00-4.042-1.329H-.003V60.43h3.107zm81.674-13.136h-6.343c-.185-.898-.601-1.605-1.248-2.121-.648-.515-1.46-.773-2.438-.773-.767 0-1.348.166-1.745.496-.396.33-.594.799-.594 1.407 0 .687.363 1.203 1.09 1.546.727.344 1.87.688 3.429 1.031 1.691.397 3.079.8 4.163 1.209 1.083.41 2.021 1.077 2.814 2.002.793.925 1.189 2.167 1.189 3.727 0 1.268-.343 2.391-1.03 3.369-.687.978-1.678 1.744-2.973 2.299-1.295.555-2.828.833-4.599.833-2.986 0-5.378-.661-7.175-1.982-1.797-1.322-2.894-3.211-3.291-5.669h6.541c.106.951.509 1.678 1.209 2.18.701.502 1.606.753 2.716.753.766 0 1.348-.178 1.744-.535.397-.356.595-.826.595-1.407 0-.766-.363-1.315-1.09-1.645-.727-.331-1.91-.681-3.548-1.051-1.639-.343-2.987-.713-4.044-1.11a6.67 6.67 0 01-2.735-1.922c-.767-.886-1.15-2.095-1.15-3.628 0-1.982.753-3.587 2.26-4.816 1.506-1.229 3.634-1.844 6.382-1.844 2.802 0 5.042.701 6.72 2.101 1.678 1.401 2.728 3.251 3.151 5.55zm77.462 4.916c.079 1.665.502 2.861 1.269 3.588.766.727 1.744 1.09 2.933 1.09 1.004 0 1.837-.251 2.498-.753a3.524 3.524 0 001.308-1.943h7.175a9.362 9.362 0 01-1.903 4.182c-.977 1.229-2.22 2.194-3.726 2.894-1.506.701-3.185 1.051-5.035 1.051-2.167 0-4.089-.456-5.768-1.368-1.678-.912-2.993-2.226-3.944-3.944-.952-1.718-1.427-3.727-1.427-6.026 0-2.326.469-4.341 1.407-6.045.938-1.705 2.253-3.013 3.945-3.925 1.691-.912 3.62-1.368 5.787-1.368 2.194 0 4.123.45 5.788 1.348 1.665.899 2.954 2.161 3.865 3.786.912 1.625 1.368 3.495 1.368 5.61 0 .554-.066 1.162-.198 1.823H162.24zM99.208 39.643c2.194 0 4.156.456 5.887 1.368 1.731.912 3.092 2.227 4.083 3.944.991 1.718 1.487 3.727 1.487 6.026s-.496 4.308-1.487 6.026c-.991 1.718-2.352 3.032-4.083 3.944-1.731.912-3.693 1.368-5.887 1.368-2.193 0-4.162-.456-5.907-1.368a10.002 10.002 0 01-4.103-3.944c-.991-1.718-1.486-3.727-1.486-6.026s.495-4.308 1.486-6.026a10.008 10.008 0 014.103-3.944c1.745-.912 3.714-1.368 5.907-1.368zm25.332 0c2.193 0 4.156.456 5.887 1.368 1.731.912 3.092 2.227 4.083 3.944.991 1.718 1.487 3.727 1.487 6.026s-.496 4.308-1.487 6.026c-.991 1.718-2.352 3.032-4.083 3.944-1.731.912-3.694 1.368-5.887 1.368-2.194 0-4.163-.456-5.907-1.368a9.996 9.996 0 01-4.103-3.944c-.991-1.718-1.486-3.727-1.486-6.026s.495-4.308 1.486-6.026a10.002 10.002 0 014.103-3.944c1.744-.912 3.713-1.368 5.907-1.368zm29.375 7.295h-2.026c-.71.007-1.42.068-2.111.236a5.81 5.81 0 00-1.279.465 4.13 4.13 0 00-.932.638 3.166 3.166 0 00-.338.366c-.63.797-.859 1.836-.912 2.83a9.233 9.233 0 00-.013.499v10.069h-6.779v-22.12h6.779v4.162a9.617 9.617 0 013.27-3.211 8.35 8.35 0 014.341-1.189v7.255zM3.104 49.687c2.605-.052 5.156.75 7.262 2.283a6.828 6.828 0 008.085 0 12.751 12.751 0 0114.542 0 6.83 6.83 0 008.086 0 11.943 11.943 0 017.168-2.283h3.013v6.008h-3.013a6.31 6.31 0 00-4.043 1.328 12.748 12.748 0 01-14.542 0 6.273 6.273 0 00-4.043-1.328 6.34 6.34 0 00-4.042 1.328 12.712 12.712 0 01-14.524 0 6.308 6.308 0 00-4.042-1.328H-.003v-6.008h3.107zm96.104-4.177c-1.295 0-2.385.47-3.27 1.408-.886.938-1.328 2.292-1.328 4.063s.442 3.119 1.328 4.044c.885.925 1.975 1.387 3.27 1.387s2.379-.462 3.251-1.387c.872-.925 1.308-2.273 1.308-4.044 0-1.771-.436-3.125-1.308-4.063-.872-.938-1.956-1.408-3.251-1.408zm25.332 0c-1.295 0-2.385.47-3.271 1.408-.885.938-1.328 2.292-1.328 4.063s.443 3.119 1.328 4.044c.886.925 1.976 1.387 3.271 1.387s2.378-.462 3.251-1.387c.872-.925 1.308-2.273 1.308-4.044 0-1.771-.436-3.125-1.308-4.063-.873-.938-1.956-1.408-3.251-1.408zm46.382 3.846c.026-1.454-.364-2.544-1.17-3.271-.806-.727-1.803-1.09-2.993-1.09-1.242 0-2.273.37-3.092 1.11-.819.74-1.282 1.824-1.387 3.251h8.642zM3.011 45.289H.765C3.597 33.907 13.9 25.853 25.629 25.853c11.729 0 22.032 8.054 24.864 19.436h-2.246a18.137 18.137 0 00-10.612 3.237c-.18.13-.367.249-.562.356h-.262a5.471 5.471 0 01-.561-.356 19.07 19.07 0 00-21.243 0c-.179.13-.367.249-.561.356h-.262a5.365 5.365 0 01-.561-.356 18.137 18.137 0 00-10.612-3.237z" fill="#394149" fill-rule="nonzero"></path></svg>