<svg xmlns="http://www.w3.org/2000/svg" viewBox="0 0 178 100" fill-rule="evenodd" clip-rule="evenodd" stroke-linejoin="round" stroke-miterlimit="2"><path d="M31.837 47.45a5.745 5.745 0 014.068-1.69c3.151 0 5.743 2.592 5.743 5.743 0 3.15-2.592 5.742-5.743 5.742-.171 0-.343-.007-.514-.023l.03.028a6.82 6.82 0 00-.572-.024c-3.728 0-6.795 3.068-6.795 6.796 0 .191.008.381.024.571l-.03-.028c.017.179.025.359.025.539 0 3.156-2.597 5.753-5.753 5.753-3.157 0-5.754-2.597-5.754-5.753 0-3.157 2.597-5.754 5.754-5.754.178 0 .356.008.533.025l-.028-.028c.19.016.381.024.571.024 3.728 0 6.796-3.068 6.796-6.796 0-.19-.008-.381-.024-.571l.028.028a5.723 5.723 0 011.636-4.582h.005zm-11.545 8.236l-.03-.028c.19.019.38.029.57.029 3.116 0 5.68-2.564 5.68-5.68 0-.189-.01-.378-.028-.566l.029.029a6.837 6.837 0 01-.024-.572c0-3.728 3.068-6.795 6.796-6.795.191 0 .381.008.571.024l-.029-.029c.178.017.358.026.538.026 3.156 0 5.753-2.598 5.753-5.754 0-3.156-2.597-5.753-5.753-5.753-3.157 0-5.754 2.597-5.754 5.753 0 .18.008.359.025.538l-.028-.03c.016.191.024.382.024.574 0 3.727-3.067 6.793-6.794 6.793-.191 0-.382-.008-.573-.024l.028.03a5.69 5.69 0 00-.569-.029c-3.116 0-5.68 2.564-5.68 5.68 0 .189.009.378.028.566l-.028-.029c.016.19.024.38.024.57 0 3.729-3.068 6.797-6.797 6.797-.19 0-.381-.008-.57-.024l.028.028a6.035 6.035 0 00-.538-.025c-3.156 0-5.753 2.598-5.753 5.754 0 3.156 2.597 5.753 5.753 5.753s5.754-2.597 5.754-5.753c0-.18-.009-.359-.025-.538l.029.028a6.82 6.82 0 01-.024-.572c0-3.727 3.068-6.795 6.796-6.795.19 0 .381.008.571.024zm133.86 5.205h-5.053v-3.002a5.182 5.182 0 01-2.021 2.349c-.911.574-2.001.861-3.269.861-1.368 0-2.591-.341-3.671-1.025-1.08-.684-1.932-1.669-2.556-2.957-.624-1.288-.936-2.794-.936-4.518 0-1.744.312-3.255.936-4.533.624-1.278 1.476-2.259 2.556-2.942 1.08-.684 2.303-1.026 3.671-1.026 1.268 0 2.358.288 3.269.862a5.184 5.184 0 012.021 2.348v-3.001h5.053v16.584zm-91.96 0H57.11V38.897h5.082v8.411a5.012 5.012 0 011.991-2.348c.912-.574 2.002-.862 3.27-.862 1.367 0 2.591.342 3.671 1.026 1.079.683 1.931 1.664 2.556 2.942.624 1.278.936 2.789.936 4.533 0 1.724-.312 3.23-.936 4.518-.625 1.288-1.477 2.273-2.556 2.957-1.08.684-2.304 1.025-3.671 1.025-1.268 0-2.358-.287-3.27-.861a5.01 5.01 0 01-1.991-2.349v3.002zm71.808 0h-5.082v-3.002a5.01 5.01 0 01-1.991 2.349c-.912.574-2.002.861-3.27.861-1.367 0-2.591-.341-3.671-1.025-1.079-.684-1.931-1.669-2.556-2.957-.624-1.288-.936-2.794-.936-4.518 0-1.744.312-3.255.936-4.533.625-1.278 1.477-2.259 2.556-2.942 1.08-.684 2.304-1.026 3.671-1.026 1.268 0 2.358.288 3.27.862a5.012 5.012 0 011.991 2.348v-8.411H134v21.994zm-40.243 0h-5.112v-3.002a5.517 5.517 0 01-2.125 2.319c-.942.574-2.036.862-3.285.862-1.902 0-3.413-.634-4.532-1.902-1.12-1.269-1.68-3.012-1.68-5.232v-9.629h5.053v9.005c0 1.13.292 2.007.877 2.631.584.624 1.372.936 2.363.936 1.03 0 1.843-.327 2.437-.981.594-.654.892-1.585.892-2.794v-8.797h5.112v16.584zm8.589 0h-5.082V44.307h5.082v3.031a5.471 5.471 0 012.126-2.348c.941-.575 2.045-.862 3.314-.862 1.902 0 3.413.634 4.532 1.902 1.12 1.269 1.68 3.012 1.68 5.231v9.63h-5.083v-9.035c0-1.11-.292-1.977-.877-2.601-.584-.624-1.362-.936-2.333-.936-1.03 0-1.848.327-2.452.981-.604.654-.907 1.585-.907 2.794v8.797zm60.396 0h-5.083V44.307h5.083v3.12a7.208 7.208 0 012.452-2.407c1-.595 2.085-.892 3.254-.892v5.439h-1.456c-1.348 0-2.393.288-3.136.862-.743.575-1.114 1.546-1.114 2.913v7.549zM65.818 48.557c-1.07 0-1.947.361-2.63 1.085-.684.723-1.026 1.709-1.026 2.957 0 1.228.342 2.209 1.026 2.942.683.734 1.56 1.1 2.63 1.1 1.09 0 1.967-.357 2.631-1.07.663-.713.995-1.704.995-2.972s-.332-2.259-.995-2.972c-.664-.714-1.541-1.07-2.631-1.07zm59.474 0c-1.09 0-1.967.356-2.631 1.07-.663.713-.995 1.704-.995 2.972s.332 2.259.995 2.972c.664.713 1.541 1.07 2.631 1.07 1.07 0 1.947-.366 2.63-1.1.684-.733 1.026-1.714 1.026-2.942 0-1.248-.342-2.234-1.026-2.957-.683-.724-1.56-1.085-2.63-1.085zm20.151 0c-1.089 0-1.966.356-2.63 1.07-.664.713-.996 1.704-.996 2.972s.332 2.259.996 2.972c.664.713 1.541 1.07 2.63 1.07 1.07 0 1.947-.366 2.631-1.1.683-.733 1.025-1.714 1.025-2.942 0-1.248-.342-2.234-1.025-2.957-.684-.724-1.561-1.085-2.631-1.085zM9.811 52.547a5.745 5.745 0 01-4.068 1.69C2.592 54.237 0 51.644 0 48.494c0-3.15 2.592-5.743 5.743-5.743.171 0 .342.008.513.023l-.029-.028c.19.016.381.024.572.024 3.728 0 6.795-3.067 6.795-6.795a6.82 6.82 0 00-.024-.572l.028.028a5.99 5.99 0 01-.025-.536c0-3.156 2.597-5.752 5.752-5.752 3.156 0 5.752 2.596 5.752 5.752 0 3.155-2.596 5.752-5.752 5.752a5.99 5.99 0 01-.536-.025l.03.028a6.909 6.909 0 00-.575-.024c-3.728 0-6.796 3.067-6.796 6.795 0 .191.008.382.025.572l-.03-.028a5.717 5.717 0 01-1.635 4.582h.003zm164.519-15.47a3.45 3.45 0 013.448 3.448 3.45 3.45 0 01-3.448 3.448 3.45 3.45 0 01-3.448-3.448 3.45 3.45 0 013.448-3.448z" fill="#394149" fill-rule="nonzero"></path></svg>