<svg xmlns="http://www.w3.org/2000/svg" viewBox="0 0 178 100" fill-rule="evenodd" clip-rule="evenodd" stroke-linejoin="round" stroke-miterlimit="2"><path d="M18.363 29.982v5.827c-7.785 0-14.191 6.406-14.191 14.191 0 7.785 6.406 14.191 14.191 14.191v5.827H-.01V29.982h18.373zm0 5.827v28.382c7.785 0 14.191-6.406 14.191-14.191 0-7.785-6.406-14.191-14.191-14.191zm106.226 5.329c1.139 0 2.117.258 2.936.774a4.659 4.659 0 011.815 2.109v-2.696h4.537v14.814c0 1.388-.267 2.638-.8 3.75-.534 1.112-1.353 1.998-2.456 2.656-1.103.658-2.473.988-4.111.988-2.242 0-4.034-.53-5.378-1.589-1.343-1.058-2.149-2.495-2.415-4.31h4.51c.143.605.468 1.076.975 1.414.507.339 1.17.508 1.988.508.943 0 1.704-.272 2.282-.815.579-.542.868-1.41.868-2.602v-2.616a4.659 4.659 0 01-1.815 2.109c-.819.516-1.797.774-2.936.774-1.228 0-2.327-.307-3.297-.921-.97-.614-1.735-1.499-2.295-2.656-.561-1.156-.841-2.509-.841-4.057 0-1.566.28-2.923.841-4.07.56-1.148 1.325-2.029 2.295-2.643.97-.614 2.069-.921 3.297-.921zM54.096 46.29h-4.27c-.125-.605-.405-1.081-.841-1.428-.436-.347-.983-.521-1.642-.521-.516 0-.907.112-1.174.334-.267.222-.401.538-.401.948 0 .462.245.809.734 1.041.49.231 1.259.462 2.309.694 1.139.266 2.073.538 2.803.814.73.275 1.361.725 1.895 1.348.534.622.801 1.459.801 2.509 0 .854-.232 1.61-.694 2.268-.463.659-1.13 1.175-2.002 1.548-.872.374-1.904.561-3.096.561-2.011 0-3.621-.445-4.831-1.335-1.21-.889-1.949-2.162-2.216-3.816h4.404c.071.64.343 1.129.814 1.468.472.338 1.081.507 1.829.507.516 0 .907-.12 1.174-.361.267-.24.401-.556.401-.947 0-.516-.245-.885-.735-1.108-.489-.222-1.285-.458-2.388-.707-1.104-.232-2.011-.481-2.723-.748a4.494 4.494 0 01-1.842-1.294c-.516-.596-.774-1.41-.774-2.442 0-1.335.507-2.416 1.522-3.243 1.014-.828 2.446-1.242 4.297-1.242 1.886 0 3.394.472 4.524 1.415 1.13.943 1.838 2.189 2.122 3.737zm6.433 3.31c.053 1.121.338 1.926.854 2.415.516.49 1.174.734 1.975.734.676 0 1.237-.169 1.682-.507a2.37 2.37 0 00.881-1.308h4.831a6.317 6.317 0 01-1.281 2.816c-.659.828-1.495 1.477-2.509 1.949-1.015.471-2.145.707-3.39.707-1.459 0-2.754-.307-3.884-.921-1.13-.614-2.015-1.499-2.656-2.656-.64-1.156-.961-2.509-.961-4.057 0-1.566.316-2.923.948-4.07a6.495 6.495 0 012.656-2.643c1.139-.614 2.438-.921 3.897-.921 1.477 0 2.776.303 3.897.908a6.413 6.413 0 012.602 2.549c.614 1.094.921 2.353.921 3.777a6.3 6.3 0 01-.133 1.228h-10.33zm27.519 0c.053 1.121.338 1.926.854 2.415.516.49 1.174.734 1.975.734.676 0 1.237-.169 1.682-.507a2.37 2.37 0 00.881-1.308h4.831a6.317 6.317 0 01-1.281 2.816c-.659.828-1.495 1.477-2.509 1.949-1.015.471-2.145.707-3.39.707-1.459 0-2.754-.307-3.884-.921-1.13-.614-2.015-1.499-2.656-2.656-.64-1.156-.961-2.509-.961-4.057 0-1.566.316-2.923.948-4.07a6.495 6.495 0 012.656-2.643c1.139-.614 2.438-.921 3.897-.921 1.477 0 2.776.303 3.897.908a6.413 6.413 0 012.602 2.549c.614 1.094.921 2.353.921 3.777a6.3 6.3 0 01-.133 1.228h-10.33zm63.926 6.619h-4.537v-2.696a4.659 4.659 0 01-1.815 2.109c-.819.516-1.798.774-2.936.774-1.228 0-2.327-.307-3.297-.921-.97-.614-1.735-1.499-2.295-2.656-.561-1.156-.841-2.509-.841-4.057 0-1.566.28-2.923.841-4.07.56-1.148 1.325-2.029 2.295-2.643.97-.614 2.069-.921 3.297-.921 1.138 0 2.117.258 2.936.774a4.659 4.659 0 011.815 2.109v-2.696h4.537v14.894zM78.786 41.325h2.989v3.844h-2.989v5.552c.001.196.012.393.051.585.03.151.076.301.152.436.032.057.07.112.114.161.204.231.521.325.816.365a2.96 2.96 0 00.415.027h1.468v3.924h-2.055c-1.744 0-3.101-.431-4.071-1.294-.969-.863-1.454-2.291-1.454-4.284v-5.472H72.22v-3.844h2.002v-3.657h4.564v3.657zm26.665 14.894h-4.564V41.325h4.564v2.723a4.912 4.912 0 011.908-2.109c.846-.516 1.838-.774 2.976-.774 1.709 0 3.065.57 4.071 1.708 1.005 1.139 1.508 2.705 1.508 4.698v8.648h-4.564v-8.114c0-.997-.263-1.775-.788-2.336-.525-.56-1.223-.84-2.095-.84-.925 0-1.659.293-2.202.88-.543.588-.814 1.424-.814 2.509v7.901zm54.237 0h-4.564V36.467h4.564v7.581a4.908 4.908 0 011.909-2.109c.845-.516 1.837-.774 2.976-.774 1.708 0 3.065.57 4.07 1.708 1.006 1.139 1.508 2.705 1.508 4.698v8.648h-4.564v-8.114c0-.997-.263-1.775-.787-2.336-.525-.56-1.224-.84-2.096-.84-.925 0-1.659.293-2.202.88-.543.588-.814 1.424-.814 2.509v7.901zm-15.534-11.077c-.979 0-1.766.32-2.363.961-.596.641-.894 1.53-.894 2.669s.298 2.029.894 2.669c.597.641 1.384.961 2.363.961.961 0 1.748-.329 2.362-.987.614-.659.921-1.54.921-2.643 0-1.121-.307-2.006-.921-2.656-.614-.649-1.401-.974-2.362-.974zm-18.097 0c-.979 0-1.766.32-2.362.961-.597.641-.895 1.53-.895 2.669s.298 2.029.895 2.669c.596.641 1.383.961 2.362.961.961 0 1.748-.329 2.362-.987.614-.659.921-1.54.921-2.643 0-1.121-.307-2.006-.921-2.656-.614-.649-1.401-.974-2.362-.974zm-59.683 2.536c.018-.979-.244-1.713-.787-2.202-.543-.49-1.214-.734-2.015-.734-.837 0-1.531.249-2.082.747-.552.498-.863 1.228-.934 2.189h5.818zm27.519 0c.018-.979-.244-1.713-.787-2.202-.543-.49-1.214-.734-2.015-.734-.837 0-1.531.249-2.082.747-.552.498-.863 1.228-.934 2.189h5.818zm80.871-11.211a3.018 3.018 0 11-3.017 3.017 3.019 3.019 0 013.017-3.017z" fill="#394149" fill-rule="nonzero"></path></svg>