<svg xmlns="http://www.w3.org/2000/svg" viewBox="0 0 178 100" fill-rule="evenodd" clip-rule="evenodd" stroke-linejoin="round" stroke-miterlimit="2"><path d="M19.26 88.232H9.678v-3.208h2.345V71.226h-1.956v-3.208h6.402v1.748c1.237-1.309 2.619-1.964 4.144-1.964 1.841 0 3.292.731 4.352 2.194 1.06 1.463 1.59 3.168 1.59 5.115 0 2.062-.547 3.769-1.641 5.122-1.093 1.352-2.551 2.028-4.373 2.028-1.487 0-2.844-.58-4.072-1.74v4.503h2.791v3.208zm13.323-6.287h-3.252v-4.791h3.252c.029.652.331 1.172.906 1.561.576.388 1.286.583 2.13.583.729 0 1.297-.127 1.705-.382.407-.254.611-.578.611-.971 0-.364-.187-.647-.561-.849-.374-.201-1.108-.393-2.201-.576-2.254-.367-3.88-.921-4.877-1.664-.998-.743-1.497-1.728-1.497-2.955 0-1.151.47-2.122 1.41-2.912.94-.791 2.187-1.187 3.741-1.187 1.256 0 2.431.233 3.525.698v-.482h3.179v4.043h-3.179c-.288-.969-1.305-1.453-3.05-1.453-1.286 0-1.928.355-1.928 1.064 0 .269.132.473.395.612.264.139.938.304 2.022.496 1.717.297 3.002.594 3.855.892.854.297 1.538.789 2.051 1.475.513.685.769 1.508.769 2.467 0 1.362-.486 2.477-1.46 3.345-.973.868-2.352 1.302-4.136 1.302-1.66 0-2.796-.338-3.41-1.014v.698zm91.316.316c-2.052 0-3.786-.649-5.201-1.949-1.414-1.3-2.122-3.081-2.122-5.345s.708-4.045 2.122-5.345c1.415-1.3 3.149-1.949 5.201-1.949 2.063 0 3.799.649 5.209 1.949 1.41 1.3 2.115 3.081 2.115 5.345 0 2.235-.698 4.009-2.094 5.323-1.395 1.314-3.139 1.971-5.23 1.971zm-63.563-.316h-6.69v-1.187c-1.333.926-2.686 1.388-4.057 1.388-1.343 0-2.396-.377-3.158-1.131-.763-.753-1.144-1.817-1.144-3.19v-6.599h-2.086v-3.208h6.517v8.676c0 .69.106 1.162.317 1.417.211.254.594.381 1.151.381.748 0 1.568-.331 2.46-.993v-6.273h-2.144v-3.208h6.59v10.719h2.244v3.208zm78.785-13.927h2.561v3.208h-2.561v6.04c0 .548.07.916.209 1.103.139.187.458.281.957.281.412 0 .877-.096 1.395-.288v3.079c-1.141.47-2.259.705-3.352.705-2.436 0-3.654-1.21-3.654-3.63v-7.29h-1.77v-3.208h1.77v-2.187l4.445-3.194v5.381zm20.128 13.927h-6.69v-1.101c-1.199.868-2.465 1.302-3.798 1.302-1.381 0-2.573-.393-3.576-1.179-1.002-.787-1.503-1.842-1.503-3.166 0-1.333.528-2.45 1.583-3.352 1.055-.902 2.417-1.352 4.086-1.352.93 0 1.999.235 3.208.705v-.849c0-.71-.24-1.293-.719-1.748-.48-.456-1.123-.684-1.928-.684-.998 0-1.851.365-2.561 1.094l-3.583-.648c1.036-2.196 3.285-3.294 6.748-3.294 1.343 0 2.455.151 3.338.453.882.302 1.539.693 1.971 1.172.432.48.736 1.005.914 1.576.177.571.266 1.499.266 2.784v5.079h2.244v3.208zm9.783 0h-8.359v-3.208h2.245V65.14h-2.245v-3.208h6.676v12.639l4.782-3.891h-2.94v-2.662h8.416v2.82h-1.395l-4.073 3.476 3.712 4.423h1.929v3.208h-4.273l-6.158-7.374v4.324h1.683v3.05zM6.571 78.737h2.071v3.208H.01v-3.208h2.115v-7.511H.01v-3.208h6.561v10.719zm100.395 3.208h-8.36v-3.208h2.245V65.14h-2.245v-3.208h6.676v12.639l4.782-3.891h-2.94v-2.662h8.416v2.82h-1.395l-4.073 3.476 3.712 4.423h1.929v3.208h-4.273l-6.158-7.374v4.324h1.684v3.05zm-36.012 0h-9.05v-3.208h2.302v-7.511h-2.302v-3.208h6.748v1.137c1.515-.902 3.021-1.353 4.518-1.353 1.793 0 3.184.633 4.172 1.899 1.794-1.266 3.669-1.899 5.625-1.899 1.161 0 2.103.214 2.828.64.724.427 1.22 1 1.489 1.72.268.719.402 1.808.402 3.266v5.309h2.302v3.208h-6.747v-8.158c0-1.458-.628-2.187-1.885-2.187-.988 0-2.057.317-3.208.95v6.187h2.302v3.208h-6.748v-8.028c0-1.544-.604-2.317-1.813-2.317-.94 0-2.019.317-3.237.95v6.187h2.302v3.208zm81.605-5.151c-1.074-.671-1.933-1.007-2.575-1.007-.509 0-.971.149-1.389.446-.417.297-.626.729-.626 1.295 0 .508.168.945.504 1.309.336.365.767.547 1.295.547.825 0 1.755-.484 2.791-1.453v-1.137zm-28.674 2.014c.825 0 1.494-.316 2.007-.949.513-.633.77-1.626.77-2.978 0-1.19-.25-2.118-.748-2.784-.499-.667-1.175-1-2.029-1-1.832 0-2.748 1.323-2.748 3.971 0 1.084.228 1.978.683 2.683.456.705 1.144 1.057 2.065 1.057zM21.994 75.025c0-1.219-.252-2.13-.755-2.734-.504-.604-1.168-.906-1.993-.906-.835 0-1.513.309-2.036.928-.523.618-.784 1.541-.784 2.769 0 1.103.259 1.99.777 2.662.518.671 1.208 1.007 2.072 1.007.796 0 1.448-.302 1.956-.906.509-.605.763-1.545.763-2.82zm-20.027-11c0-.669.237-1.243.712-1.721a2.335 2.335 0 011.719-.717 2.33 2.33 0 011.727.717c.47.478.705 1.052.705 1.721 0 .67-.238 1.241-.713 1.715a2.345 2.345 0 01-1.719.71 2.342 2.342 0 01-1.712-.717c-.48-.479-.719-1.048-.719-1.708zm58.258-52.257c10.275 0 18.616 8.342 18.616 18.616 0 10.275-8.341 18.617-18.616 18.617s-18.616-8.342-18.616-18.617c0-10.274 8.341-18.616 18.616-18.616zm41.616 0c10.275 0 18.617 8.342 18.617 18.616 0 10.275-8.342 18.617-18.617 18.617-10.274 0-18.616-8.342-18.616-18.617 0-10.274 8.342-18.616 18.616-18.616zM37.225 48.983H.01V11.768h37.215v37.215z" fill="#394149"></path></svg>