<svg xmlns="http://www.w3.org/2000/svg" width="141.03mm" height="34.98mm" viewBox="0 0 399.76 99.15"><title>allianz-logo</title><path d="M36.43,52.48H22.78l7.27-23.72ZM15.7,78.62,20.36,63H38.75l4.36,15.58h17L43.22,19.18c-1-3.51-3.1-5.13-6.79-5.13H12.32v5.61h2c2.52,0,3.88,1,3.88,2.91,0,1.27-.28,2.33-1.28,5.22L0,78.62Z" fill="#003781"/><path d="M79.78,78.62V19c0-3.11-1.82-4.95-4.83-4.95H60v5.61h1c2.51,0,3.58,1.07,3.58,3.61V78.62Z" fill="#003781"/><path d="M105.62,78.62V19c0-3.11-1.85-4.95-4.84-4.95H85.88v5.61h1c2.52,0,3.59,1.07,3.59,3.61V78.62Z" fill="#003781"/><path d="M132.13,19.94c0-4.33-3.21-7-8.71-7s-8.73,2.62-8.73,7,3.31,7,8.73,7,8.71-2.6,8.71-7m-.29,58.68V35.16c0-3.1-1.84-4.93-4.85-4.93H112.28v5.5h.87c2.51,0,3.58,1.16,3.58,3.68V78.62Z" fill="#003781"/><path d="M165.12,55.38v9.41C162.59,67.4,159.51,69,156.9,69s-3.68-1.34-3.68-5,.76-5.21,3.48-6.26a38.66,38.66,0,0,1,8.42-2.36m-20.44-11.3a36.51,36.51,0,0,1,14.91-3.78c4.08,0,5.53,1.45,5.53,5.68v1.08c-6.19,1-8.13,1.38-11.62,2.15A34.7,34.7,0,0,0,147.78,51c-6.11,2.45-9,7.17-9,14.42,0,9.2,4,13.64,12.19,13.64a21.94,21.94,0,0,0,8.14-1.53,27.07,27.07,0,0,0,6.49-4.16v.68c0,3,1.54,4.53,4.55,4.53H184V73.41h-.68c-2.61,0-3.57-1.17-3.57-4.26V46.1c0-12.29-4.27-16.57-16.58-16.57a51.9,51.9,0,0,0-11.59,1.37,38.84,38.84,0,0,0-10.27,3.88Z" fill="#003781"/><path d="M206.05,78.62V45.9c2.53-2.81,5.13-4.08,8.13-4.08,3.21,0,4,1.27,4,6.14V78.62h15.1V45.72c0-7.66-.55-10.08-3-12.68-2-2.25-5.13-3.39-9.12-3.39-5.91,0-10.07,1.83-15.66,7.06V34.78c0-3-1.57-4.55-4.66-4.55H186.49v5.5h.87c2.51,0,3.59,1.16,3.59,3.68V78.62Z" fill="#003781"/><path d="M278.07,68.46H257l20.15-28.25v-10H245.55c-3.58,0-5.23,1.64-5.23,5.23v8.8h5.61v-.86c0-2.23,1.16-3.29,3.57-3.29h10.86L240,68.66v10h38Z" fill="#003781"/><path d="M357.34,77.39V22.68c0-4.36-1.55-5.83-5.78-5.83H338.75V23h.77c2.92,0,3.49.66,3.49,4.18V77.39Zm6.32,0h14.22V34.78c0-4.28-1.65-5.82-5.82-5.82h-8.4Zm-26.93,0V29H328.3c-4.17,0-5.8,1.54-5.8,5.82V77.39Zm54.61-27.81c0,24.11-17.34,41.64-41.15,41.64S309,73.69,309,49.58,326.37,7.94,350.19,7.94s41.15,17.63,41.15,41.64m8.42,0C399.76,21.23,378.55,0,350.19,0S300.6,21.23,300.6,49.58s21.21,49.57,49.59,49.57S399.76,78,399.76,49.58" fill="#003781"/></svg>